<?xml version="1.0" encoding="utf-8"?>
<!-- Generator: Adobe Illustrator 27.5.0, SVG Export Plug-In . SVG Version: 6.00 Build 0)  -->
<svg version="1.1" xmlns="http://www.w3.org/2000/svg" xmlns:xlink="http://www.w3.org/1999/xlink" x="0px" y="0px"
	 viewBox="0 0 2500 2500" style="enable-background:new 0 0 2500 2500;" xml:space="preserve">
<g id="Background">
	<rect style="fill:#FFFFFF;" width="2500" height="2500"/>
</g>
<g id="Illustration">
	<g id="Area_management_1_">
		<circle style="fill:#F2E6DC;" cx="1249.998" cy="1250" r="915"/>
		<g>
			<g>
				<path style="fill:#8B865C;" d="M1472.994,1981.761H961.237V1648.45h511.757V1981.761z M965.647,1977.352h502.938V1652.86
					H965.647V1977.352z"/>
				<g>
					<rect x="1024.36" y="1722.677" style="fill:#D3BBA3;" width="204.175" height="174.849"/>
					<rect x="999.967" y="1698.283" style="fill:#FFFFFF;" width="204.175" height="174.849"/>
					<g>
						<path style="fill:#8B865C;" d="M1434.264,1724.474h-182.719c-1.218,0-2.205-0.986-2.205-2.205
							c0-1.219,0.987-2.205,2.205-2.205h182.719c1.218,0,2.205,0.986,2.205,2.205
							C1436.469,1723.487,1435.482,1724.474,1434.264,1724.474z"/>
						<path style="fill:#8B865C;" d="M1395.456,1761.923h-143.911c-1.218,0-2.205-0.986-2.205-2.205
							c0-1.219,0.987-2.205,2.205-2.205h143.911c1.218,0,2.205,0.986,2.205,2.205
							C1397.661,1760.937,1396.674,1761.923,1395.456,1761.923z"/>
						<path style="fill:#8B865C;" d="M1419.711,1795.846h-168.166c-1.218,0-2.205-0.986-2.205-2.205
							c0-1.219,0.987-2.205,2.205-2.205h168.166c1.218,0,2.205,0.986,2.205,2.205
							C1421.916,1794.86,1420.929,1795.846,1419.711,1795.846z"/>
						<path style="fill:#8B865C;" d="M1367.232,1831.53h-115.686c-1.218,0-2.205-0.986-2.205-2.205s0.987-2.205,2.205-2.205h115.686
							c1.218,0,2.205,0.986,2.205,2.205S1368.449,1831.53,1367.232,1831.53z"/>
					</g>
				</g>
				<path style="fill:#E6D0BE;" d="M1025.264,1847.516c50.212-0.572,100.424-1.145,150.636-1.717
					c-23.089-73.876-37.37-92.47-46.575-91.347c-13.299,1.623-16.782,44.493-35.069,45.925
					c-10.993,0.861-15.565-14.175-26.654-14.595C1058.065,1785.42,1043.979,1795.88,1025.264,1847.516z"/>
				
					<ellipse transform="matrix(0.9599 -0.2802 0.2802 0.9599 -445.2231 370.3044)" style="fill:#E6D0BE;" cx="1072.486" cy="1742.27" rx="19.45" ry="19.45"/>
			</g>
			<g>
				<path style="fill:#8B865C;" d="M776.602,464.172H514.284c-1.218,0-2.205-0.986-2.205-2.205c0-1.219,0.987-2.205,2.205-2.205
					h262.318c1.218,0,2.205,0.986,2.205,2.205C778.807,463.186,777.819,464.172,776.602,464.172z"/>
				<path style="fill:#8B865C;" d="M720.887,517.936H514.284c-1.218,0-2.205-0.986-2.205-2.205s0.987-2.205,2.205-2.205h206.603
					c1.218,0,2.205,0.986,2.205,2.205S722.105,517.936,720.887,517.936z"/>
				<path style="fill:#8B865C;" d="M755.709,566.635H514.284c-1.218,0-2.205-0.986-2.205-2.205c0-1.219,0.987-2.205,2.205-2.205
					h241.424c1.218,0,2.205,0.986,2.205,2.205C757.914,565.649,756.926,566.635,755.709,566.635z"/>
				<path style="fill:#8B865C;" d="M680.368,617.867H514.284c-1.218,0-2.205-0.986-2.205-2.205s0.987-2.205,2.205-2.205h166.084
					c1.218,0,2.205,0.986,2.205,2.205S681.586,617.867,680.368,617.867z"/>
				<path style="fill:#D3BBA3;" d="M796.148,652.232h-312.38c-1.218,0-2.205-0.986-2.205-2.205V428.722
					c0-1.219,0.987-2.205,2.205-2.205h312.38c1.218,0,2.205,0.986,2.205,2.205v221.304
					C798.353,651.245,797.366,652.232,796.148,652.232z M485.973,647.822h307.971V430.927H485.973V647.822z"/>
			</g>
			<g>
				<path style="fill:#8B865C;" d="M2135.299,809.827h-182.584c-1.218,0-2.205-0.986-2.205-2.205c0-1.219,0.987-2.205,2.205-2.205
					h182.584c1.218,0,2.205,0.986,2.205,2.205C2137.504,808.841,2136.517,809.827,2135.299,809.827z"/>
				<path style="fill:#8B865C;" d="M1952.715,857.98c-1.207,0-2.191-0.971-2.205-2.179c-0.014-1.219,0.961-2.216,2.179-2.231
					l110.977-1.275c1.158-0.06,2.217,0.962,2.231,2.179c0.014,1.219-0.961,2.216-2.179,2.231l-110.977,1.275
					C1952.732,857.98,1952.723,857.98,1952.715,857.98z"/>
				<path style="fill:#8B865C;" d="M2120.757,897.856h-168.042c-1.218,0-2.205-0.986-2.205-2.205s0.987-2.205,2.205-2.205h168.042
					c1.218,0,2.205,0.986,2.205,2.205S2121.974,897.856,2120.757,897.856z"/>
				<path style="fill:#8B865C;" d="M1952.715,947.484c-1.212,0-2.198-0.98-2.205-2.192c-0.006-1.219,0.975-2.211,2.193-2.218
					l187.644-1.023c1.257,0.024,2.21,0.973,2.217,2.192c0.007,1.219-0.975,2.211-2.193,2.218l-187.644,1.023
					C1952.722,947.484,1952.719,947.484,1952.715,947.484z"/>
				<path style="fill:#D3BBA3;" d="M2162.797,976.379H1922.76c-1.218,0-2.205-0.986-2.205-2.205v-198.21
					c0-1.219,0.987-2.205,2.205-2.205h240.037c1.218,0,2.205,0.986,2.205,2.205v198.21
					C2165.002,975.393,2164.014,976.379,2162.797,976.379z M1924.965,971.969h235.627v-193.8h-235.627V971.969z"/>
			</g>
			<g>
				<path style="fill:#FFFFFF;" d="M896.688,1622.298c-80.46,0.006-172.177-79.201-211.443-161.54
					c-43.208-90.609-23.355-182.468-5.84-263.517c12.743-58.959,28.136-90.036,41.716-117.452
					c14.609-29.494,27.227-54.965,31.199-107.16l2.198,0.168l-2.198-0.168c3.792-49.834-3.139-85.887-8.709-114.855
					c-7.129-37.077-12.279-63.867,7.885-95.912c17.135-27.233,39.021-36.05,62.193-45.384c23.499-9.465,50.134-20.194,76.263-52.563
					c23.227-28.775,27.517-51.348,32.059-75.248c4.078-21.46,8.295-43.653,25.447-72.921
					c41.353-70.563,127.203-123.64,208.772-129.07c36.158-2.416,54.314,5.887,98.193,25.93
					c32.027,14.629,75.891,34.664,149.928,61.901c101.773,37.439,148.719,54.025,195.027,54.841
					c53.846,0.934,88.041-11.412,115.498-21.34c29.666-10.727,53.096-19.206,87.504-8.315
					c47.484,15.027,91.877,60.527,115.854,118.748c18.409,44.701,20.47,88.417,5.512,116.944
					c-10.47,19.964-26.321,27.244-43.103,34.95c-17.808,8.178-37.99,17.447-56.876,43.608
					c-29.867,41.371-39.259,103.344-23.372,154.215c12.387,39.661,35.018,56.236,61.223,75.429
					c18.985,13.905,40.505,29.666,59.768,56.667c30.595,42.884,46.743,101.105,45.469,163.936
					c-1.27,62.607-19.665,123.095-51.795,170.32c-61.937,91.039-161.051,113.18-275.813,138.815
					c-62.424,13.944-126.967,28.361-205.583,7.794c-34.264-8.966-52.793-19.759-74.249-32.258
					c-20.861-12.152-44.505-25.928-88.182-40.402c-68.81-22.804-128.236-42.499-188.609-22.952
					c-46.325,14.997-66.884,44.523-86.767,73.078c-18.576,26.677-36.122,51.878-72.919,60.693
					C914.385,1621.325,905.601,1622.298,896.688,1622.298z M1168.019,390.672c-3.635,0-7.439,0.136-11.497,0.407
					c-80.197,5.338-164.603,57.521-205.26,126.9c-16.766,28.609-20.911,50.42-24.92,71.514
					c-4.648,24.458-9.037,47.559-32.958,77.192c-26.851,33.262-54.049,44.217-78.047,53.885
					c-23.467,9.452-43.734,17.615-60.109,43.64c-19.236,30.575-14.224,56.647-7.286,92.732c5.62,29.227,12.613,65.6,8.776,116.024
					c-4.037,53.047-16.831,78.874-31.644,108.781c-13.467,27.186-28.73,58.001-41.355,116.416
					c-17.368,80.368-37.052,171.446,5.509,260.696c42.887,89.937,148.995,176.181,232.682,156.129
					c35.165-8.423,52.245-32.954,70.328-58.923c19.354-27.797,41.29-59.3,89.027-74.753c61.752-19.985,121.808-0.086,191.352,22.961
					c44.115,14.618,67.97,28.516,89.017,40.776c21.176,12.338,39.465,22.991,73.144,31.802
					c77.585,20.302,141.597,5.999,203.503-7.829c113.852-25.433,212.176-47.397,273.133-136.994
					c66.036-97.062,68.839-241.669,6.382-329.214c-18.852-26.425-39.152-41.293-58.784-55.672
					c-25.716-18.836-50.007-36.625-62.827-77.673c-16.535-52.944-7.112-115.006,24.006-158.107
					c19.566-27.104,40.31-36.631,58.612-45.035c16.776-7.704,31.266-14.359,41.037-32.993c14.36-27.381,12.235-69.706-5.683-113.214
					c-23.494-57.045-66.834-101.581-113.108-116.225c-32.979-10.434-55.79-2.185-84.673,8.259
					c-27.797,10.053-62.395,22.587-117.075,21.603c-49.006-0.863-101.384-20.132-196.472-55.112
					c-74.194-27.293-118.146-47.369-150.238-62.028C1213.322,398.684,1195.778,390.672,1168.019,390.672z"/>
				<path style="fill:#D3BBA3;" d="M787.029,974.407c8.087-106.276-34.746-144.945-1.095-198.428
					c32.281-51.304,81.602-31.467,130.833-92.455c41.477-51.382,19.876-81.208,54.575-140.418
					c39.216-66.916,119.805-116.008,195.831-121.069c57.484-3.828,64.6,20.696,233.856,82.961
					c92.781,34.131,140.091,51.212,185.174,52.006c104.504,1.84,128.785-47.977,191.44-28.15
					c86.947,27.515,146.568,157.112,113.591,219.999c-19.79,37.739-59.19,25.259-94.422,74.063
					c-30.775,42.629-36.693,101.988-22.409,147.723c20.779,66.529,72.449,66.26,114.747,125.549
					c59.421,83.289,56.247,222.303-6.01,313.812c-58.128,85.438-152.09,106.427-259.644,130.453
					c-57.881,12.929-119.611,26.719-193.49,7.389c-64.392-16.847-70.635-41.225-153.527-68.695
					c-64.643-21.422-121.952-40.416-179.717-21.716c-86.181,27.899-80.544,109.644-150.902,126.499
					c-78.988,18.922-180.8-61.422-222.478-148.824c-40.569-85.073-21.807-171.883-5.367-247.948
					C743.261,1070.345,779.81,1069.264,787.029,974.407z"/>
				<path style="fill:#E6D0BE;" d="M1767.322,910.002c1.75-30.693,11.255-61.827,29.491-87.087
					c8.337-11.548,16.905-19.639,25.393-25.801c-34.349-49.815-124.029-85.539-203.872-117.337
					c-143.153-57.012-244.932-97.547-368.514-71.556c-119.785,25.191-143.433,88.357-239.713,75.134
					c-29.271-4.02-54.816-13.67-77.049-24.51c-3.999,7.771-9.21,15.906-16.292,24.68c-25.41,31.477-50.842,41.424-73.944,50.734
					c36.826,49.445,101.826,63.172,120.773,67.164c126.895,26.734,163.552-60.817,322.002-75.134
					c83.932-7.584,202.422,5.348,307.691,64.4C1676.306,837.259,1725.656,898.229,1767.322,910.002z"/>
				<path style="fill:#E6D0BE;" d="M1774.403,970.639c-0.66-2.116-1.262-4.268-1.836-6.438
					c-23.396,17.209-44.563,49.298-64.788,80.511c-61.578,95.035-44.03,127.865-85.867,196.779
					c-45.557,75.041-135.272,149.625-236.135,164.579c-94.06,13.946-147.976-0.748-200.357,35.778
					c-4.446,3.101-8.551,6.366-12.367,9.741c33.081,4.245,67.094,15.517,103.425,27.557c17.134,5.678,30.987,11.224,42.762,16.598
					c38.574-11.397,71.392-19.15,120.203-21.696c78.505-4.093,161.692-43.877,196.779-96.601
					c31.009-46.595,27.917-50.856,75.134-157.423c31.609-71.339,48.182-107.589,85.867-135.956
					c20.23-15.228,38.161-22.332,51.552-29.241C1818.082,1030.798,1788.813,1016.776,1774.403,970.639z"/>
				<path style="fill:#E6D0BE;" d="M702.364,1269.691c-1.023,0-1.94-0.715-2.156-1.755c-0.249-1.193,0.517-2.36,1.708-2.607
					c37.052-7.719,89.9-26.447,131.25-71.835c61.807-67.839,63.326-155.717,63.826-184.595c0.692-40.025-6.448-66.198-12.747-89.291
					c-6.759-24.778-12.595-46.178-5.075-75.795c5.602-22.061,17.131-42.91,34.267-61.967c0.815-0.906,2.209-0.98,3.114-0.164
					c0.905,0.814,0.98,2.207,0.166,3.113c-16.654,18.519-27.848,38.742-33.273,60.103c-7.235,28.492-1.811,48.375,5.056,73.549
					c6.377,23.377,13.604,49.873,12.902,90.527c-0.507,29.289-2.048,118.421-64.975,187.492
					c-42.146,46.26-95.92,65.328-133.61,73.179C702.664,1269.676,702.512,1269.691,702.364,1269.691z"/>
				<path style="fill:#E6D0BE;" d="M704.208,1239.099c-0.886,0-1.721-0.538-2.058-1.415c-0.436-1.137,0.131-2.411,1.267-2.849
					c34.85-13.39,64.48-33.311,88.07-59.205c61.807-67.841,63.326-155.72,63.826-184.595c0.692-40.025-6.448-66.198-12.747-89.291
					c-6.759-24.778-12.596-46.178-5.075-75.795c5.606-22.074,17.146-42.936,34.301-62.004c0.815-0.904,2.208-0.978,3.115-0.164
					c0.905,0.814,0.979,2.207,0.164,3.113c-16.672,18.532-27.877,38.765-33.305,60.14c-7.235,28.493-1.811,48.375,5.056,73.549
					c6.376,23.377,13.603,49.873,12.902,90.527c-0.507,29.289-2.048,118.419-64.975,187.491
					c-24.056,26.406-54.252,46.71-89.747,60.351C704.738,1239.052,704.471,1239.099,704.208,1239.099z"/>
				<path style="fill:#E6D0BE;" d="M740.894,1473.07c-0.651,0-1.297-0.288-1.732-0.84c-0.754-0.956-0.59-2.343,0.366-3.096
					c33.718-26.598,70.257-49.686,108.602-68.619c64.297-31.748,183.971-90.839,316.416-53.814
					c56.101,15.683,109.636,48.047,154.818,93.593c0.857,0.863,0.851,2.261-0.013,3.118c-0.863,0.859-2.261,0.853-3.118-0.013
					c-44.644-45.003-97.507-76.973-152.873-92.452c-130.825-36.573-249.512,22.038-313.276,53.521
					c-38.071,18.799-74.349,41.719-107.826,68.128C741.854,1472.915,741.372,1473.07,740.894,1473.07z"/>
				<path style="fill:#E6D0BE;" d="M765.053,1504.9c-0.68,0-1.351-0.314-1.783-0.904c-0.718-0.984-0.503-2.364,0.48-3.081
					l2.092-1.527c22.993-16.797,49.055-35.833,84.273-53.224c64.296-31.748,183.97-90.839,316.416-53.814
					c22.642,6.33,44.961,15.367,66.335,26.858c1.072,0.577,1.474,1.914,0.898,2.987c-0.577,1.07-1.914,1.473-2.986,0.898
					c-21.089-11.339-43.104-20.253-65.433-26.497c-130.829-36.575-249.511,22.038-313.275,53.521
					c-34.879,17.223-60.778,36.141-83.627,52.83l-2.092,1.529C765.959,1504.762,765.504,1504.9,765.053,1504.9z"/>
				<g>
					<path style="fill:#84524D;" d="M1566.457,612.215c-0.01,0-0.019,0-0.029,0c-1.218-0.015-2.192-1.014-2.177-2.233l1.503-118.711
						c0.015-1.208,1-2.177,2.204-2.177c0.01,0,0.019,0,0.029,0c1.218,0.015,2.192,1.014,2.177,2.233l-1.503,118.711
						C1568.645,611.247,1567.66,612.215,1566.457,612.215z"/>
					<path style="fill:#8B865C;" d="M1602.52,482.282c0,31.536-6.011,58.604-36.816,57.102
						c-30.805-1.503-36.816-25.565-36.816-57.102s16.483-57.102,36.816-57.102C1586.037,425.18,1602.52,450.746,1602.52,482.282z"/>
				</g>
				<g>
					<path style="fill:#84524D;" d="M1858.048,733.859c-0.01,0-0.019,0-0.029,0c-1.218-0.015-2.192-1.014-2.177-2.233l1.502-118.711
						c0.015-1.219,1.029-2.142,2.233-2.177c1.218,0.015,2.192,1.014,2.177,2.233l-1.502,118.711
						C1860.237,732.891,1859.252,733.859,1858.048,733.859z"/>
					<path style="fill:#8B865C;" d="M1894.111,603.927c0,31.536-6.011,58.604-36.815,57.102
						c-30.805-1.503-36.816-25.565-36.816-57.102s16.483-57.102,36.816-57.102C1877.628,546.826,1894.111,572.391,1894.111,603.927z
						"/>
				</g>
				<g>
					<path style="fill:#84524D;" d="M1894.477,1220.952c-0.01,0-0.019,0-0.029,0c-1.218-0.015-2.192-1.014-2.177-2.233
						l1.503-118.711c0.014-1.219,0.998-2.297,2.233-2.177c1.218,0.015,2.192,1.014,2.177,2.233l-1.503,118.711
						C1896.666,1219.983,1895.681,1220.952,1894.477,1220.952z"/>
					<path style="fill:#8B865C;" d="M1930.541,1091.02c0,31.536-6.011,58.604-36.816,57.102s-36.816-25.565-36.816-57.102
						s16.483-57.102,36.816-57.102C1914.058,1033.918,1930.541,1059.484,1930.541,1091.02z"/>
				</g>
				<g>
					<path style="fill:#84524D;" d="M1779.611,1315.93c-0.01,0-0.019,0-0.029,0c-1.218-0.015-2.192-1.014-2.177-2.233l1.502-118.711
						c0.015-1.208,1-2.177,2.204-2.177c0.01,0,0.019,0,0.029,0c1.218,0.015,2.192,1.014,2.177,2.233l-1.502,118.712
						C1781.8,1314.961,1780.815,1315.93,1779.611,1315.93z"/>
					<path style="fill:#8B865C;" d="M1815.674,1185.998c0,31.536-6.011,58.604-36.816,57.102s-36.816-25.565-36.816-57.102
						c0-31.536,16.483-57.102,36.816-57.102S1815.674,1154.462,1815.674,1185.998z"/>
				</g>
				<g>
					<path style="fill:#84524D;" d="M1533.503,1564.023c-0.01,0-0.019,0-0.029,0c-1.218-0.015-2.192-1.014-2.177-2.233
						l1.503-118.711c0.015-1.219,0.95-2.14,2.233-2.177c1.218,0.015,2.192,1.014,2.177,2.233l-1.503,118.711
						C1535.692,1563.054,1534.706,1564.023,1533.503,1564.023z"/>
					<path style="fill:#8B865C;" d="M1569.566,1434.091c0,31.536-6.011,58.604-36.816,57.102
						c-30.805-1.503-36.816-25.565-36.816-57.102s16.483-57.102,36.816-57.102S1569.566,1402.554,1569.566,1434.091z"/>
				</g>
				<g>
					<path style="fill:#84524D;" d="M1652.6,1074.605c-0.01,0-0.019,0-0.029,0c-1.218-0.015-2.192-1.014-2.177-2.233l1.502-118.711
						c0.015-1.208,1-2.177,2.204-2.177c0.01,0,0.019,0,0.029,0c1.218,0.015,2.192,1.014,2.177,2.233l-1.502,118.711
						C1654.788,1073.636,1653.803,1074.605,1652.6,1074.605z"/>
					<path style="fill:#8B865C;" d="M1688.662,944.672c0,31.536-6.011,58.604-36.816,57.102
						c-30.805-1.503-36.815-25.565-36.815-57.102s16.483-57.102,36.815-57.102C1672.179,887.571,1688.662,913.136,1688.662,944.672z
						"/>
				</g>
				<g>
					<path style="fill:#84524D;" d="M1026.297,623.44c-0.01,0-0.019,0-0.029,0c-1.218-0.015-2.192-1.014-2.177-2.233l1.503-118.711
						c0.014-1.217,0.997-2.267,2.233-2.177c1.218,0.015,2.192,1.014,2.177,2.233l-1.503,118.711
						C1028.486,622.471,1027.501,623.44,1026.297,623.44z"/>
					<path style="fill:#8B865C;" d="M1062.361,493.507c0,31.536-6.011,58.604-36.816,57.102
						c-30.805-1.503-36.815-25.565-36.815-57.102s16.483-57.102,36.815-57.102C1045.878,436.406,1062.361,461.971,1062.361,493.507z
						"/>
				</g>
				<g>
					<path style="fill:#84524D;" d="M1772.181,653.36c-0.01,0-0.019,0-0.029,0c-1.218-0.015-2.192-1.014-2.177-2.233l1.503-118.711
						c0.015-1.216,1.022-2.259,2.233-2.177c1.218,0.015,2.192,1.014,2.177,2.233l-1.503,118.711
						C1774.37,652.391,1773.385,653.36,1772.181,653.36z"/>
					<path style="fill:#8B865C;" d="M1808.244,523.427c0,31.536-6.011,58.604-36.816,57.102
						c-30.805-1.503-36.816-25.565-36.816-57.102s16.483-57.102,36.816-57.102S1808.244,491.89,1808.244,523.427z"/>
				</g>
				<g>
					<path style="fill:#84524D;" d="M1586.463,1214.398c-0.01,0-0.019,0-0.029,0c-1.218-0.015-2.192-1.014-2.177-2.233
						l1.503-118.711c0.014-1.219,0.97-2.216,2.233-2.177c1.218,0.015,2.192,1.014,2.177,2.233l-1.503,118.712
						C1588.651,1213.429,1587.666,1214.398,1586.463,1214.398z"/>
					<path style="fill:#8B865C;" d="M1622.526,1084.467c0,31.536-6.011,58.604-36.816,57.102
						c-30.805-1.503-36.816-25.565-36.816-57.102s16.483-57.102,36.816-57.102S1622.526,1052.93,1622.526,1084.467z"/>
				</g>
				<g>
					<path style="fill:#84524D;" d="M947.892,1140.199c-0.01,0-0.019,0-0.029,0c-1.218-0.015-2.192-1.014-2.177-2.233l1.503-118.711
						c0.015-1.219,0.942-2.162,2.233-2.177c1.218,0.015,2.192,1.014,2.177,2.233l-1.503,118.712
						C950.081,1139.23,949.096,1140.199,947.892,1140.199z"/>
					<path style="fill:#8B865C;" d="M983.955,1010.267c0,31.536-6.011,58.604-36.815,57.102
						c-30.805-1.503-36.816-25.565-36.816-57.102c0-31.536,16.483-57.102,36.816-57.102
						C967.472,953.165,983.955,978.731,983.955,1010.267z"/>
				</g>
				<g>
					<path style="fill:#84524D;" d="M1664.131,674.183c-0.01,0-0.019,0-0.029,0c-1.218-0.015-2.192-1.014-2.177-2.233l1.503-118.711
						c0.015-1.208,1-2.177,2.204-2.177c0.01,0,0.019,0,0.029,0c1.218,0.015,2.192,1.014,2.177,2.233l-1.503,118.711
						C1666.319,673.214,1665.334,674.183,1664.131,674.183z"/>
					<path style="fill:#8B865C;" d="M1700.194,544.25c0,31.536-6.011,58.604-36.816,57.102
						c-30.805-1.503-36.816-25.565-36.816-57.102c0-31.536,16.483-57.102,36.816-57.102S1700.194,512.713,1700.194,544.25z"/>
				</g>
				<g>
					<rect x="1098.928" y="484.645" style="fill:#BC8271;" width="88.104" height="79.713"/>
					<path style="fill:#E6D0BE;" d="M1187.032,566.565c-0.528,0-1.056-0.187-1.478-0.571l-88.104-79.714
						c-0.903-0.816-0.973-2.211-0.156-3.113c0.818-0.9,2.211-0.975,3.115-0.155l88.104,79.714c0.903,0.816,0.973,2.211,0.156,3.114
						C1188.232,566.319,1187.634,566.565,1187.032,566.565z"/>
					<path style="fill:#E6D0BE;" d="M1098.929,566.565c-0.602,0-1.2-0.246-1.636-0.726c-0.817-0.902-0.747-2.297,0.156-3.114
						l88.104-79.714c0.904-0.82,2.296-0.745,3.115,0.155c0.817,0.902,0.747,2.297-0.156,3.113l-88.104,79.714
						C1099.986,566.377,1099.457,566.565,1098.929,566.565z"/>
				</g>
				<g>
					<rect x="1214.747" y="455.891" style="fill:#BC8271;" width="88.104" height="79.713"/>
					<path style="fill:#E6D0BE;" d="M1302.85,537.809c-0.527,0-1.056-0.187-1.478-0.571l-88.104-79.714
						c-0.903-0.816-0.973-2.211-0.156-3.113c0.818-0.902,2.21-0.975,3.115-0.155l88.104,79.714c0.903,0.816,0.973,2.211,0.156,3.113
						C1304.051,537.564,1303.452,537.809,1302.85,537.809z"/>
					<path style="fill:#E6D0BE;" d="M1214.748,537.809c-0.602,0-1.2-0.246-1.636-0.726c-0.817-0.902-0.747-2.297,0.156-3.113
						l88.104-79.714c0.903-0.82,2.296-0.747,3.115,0.155c0.817,0.902,0.747,2.297-0.156,3.113l-88.104,79.714
						C1215.804,537.622,1215.276,537.809,1214.748,537.809z"/>
				</g>
				<g>
					<rect x="1331.026" y="502.402" style="fill:#BC8271;" width="88.104" height="79.713"/>
					<path style="fill:#E6D0BE;" d="M1419.129,584.321c-0.527,0-1.056-0.187-1.478-0.571l-88.104-79.714
						c-0.903-0.816-0.973-2.211-0.156-3.113c0.818-0.9,2.211-0.975,3.115-0.155l88.104,79.714c0.903,0.816,0.973,2.211,0.156,3.113
						C1420.329,584.076,1419.731,584.321,1419.129,584.321z"/>
					<path style="fill:#E6D0BE;" d="M1331.027,584.321c-0.602,0-1.2-0.245-1.636-0.726c-0.817-0.902-0.747-2.297,0.156-3.113
						l88.104-79.714c0.903-0.82,2.296-0.745,3.115,0.155c0.817,0.902,0.747,2.297-0.156,3.113l-88.104,79.714
						C1332.083,584.134,1331.554,584.321,1331.027,584.321z"/>
				</g>
				<g>
					<path style="fill:#F7F1EB;" d="M1357.155,833.622c-20.258-0.924-172.784-5.494-261.179,107.334
						c-28.529,36.416-75.105,116.621-46.511,164.579c24.488,41.073,90.772,36.12,96.601,71.556
						c4.22,25.656-29.005,37.495-28.622,67.978c0.473,37.682,51.874,69.542,85.867,82.289
						c88.91,33.341,209.702-7.446,261.179-85.867c28.593-43.559,6.863-54.645,42.934-143.112
						c38.144-93.552,73.956-109.396,64.401-150.268c-12.98-55.515-92.707-84.698-125.223-96.601
						C1409.625,837.977,1377.255,834.539,1357.155,833.622z"/>
					<path style="fill:#E6D0BE;" d="M1355.911,846.548c-19.034-0.868-162.344-5.162-245.398,100.848
						c-26.805,34.215-70.567,109.574-43.701,154.634c23.008,38.591,85.287,33.938,90.764,67.232
						c3.965,24.106-27.252,35.23-26.893,63.871c0.445,35.405,48.739,65.34,80.679,77.317
						c83.537,31.326,197.031-6.996,245.398-80.679c26.865-40.927,6.448-51.343,40.339-134.464
						c35.839-87.899,69.488-102.785,60.509-141.188c-12.196-52.161-87.106-79.581-117.656-90.764
						C1405.211,850.64,1374.796,847.409,1355.911,846.548z"/>
					<path style="fill:#FFFFFF;" d="M1158.293,1005.276c-2.441,0-5.151-0.588-7.174-2.261c-1.411-1.169-1.84-2.353-2.218-3.398
						c-0.296-0.816-0.601-1.658-1.517-2.885c-1.121-1.503-2.33-3.124-4.363-3.602c-2.517-0.596-4.755,0.536-5.178,0.769
						c-1.731,0.956-2.259,2.282-2.926,3.962c-0.75,1.882-1.683,4.227-4.569,5.478c-2.601,1.128-5.998,0.962-9.569-0.467
						c-3.046-1.219-4.629-3.088-5.786-4.451c-0.56-0.661-1.089-1.285-1.376-1.298c-0.072-0.024-1.723-0.032-4.678,5.695
						c-0.557,1.085-1.891,1.511-2.97,0.949c-1.082-0.558-1.507-1.888-0.948-2.969c2.922-5.667,5.686-8.234,8.815-8.081
						c2.197,0.11,3.432,1.565,4.521,2.851c1,1.178,2.032,2.396,4.062,3.208c2.435,0.977,4.685,1.165,6.176,0.517
						c1.164-0.504,1.544-1.35,2.225-3.064c0.75-1.886,1.78-4.472,4.895-6.192c0.946-0.521,4.334-2.144,8.319-1.199
						c3.596,0.848,5.543,3.46,6.832,5.187c1.36,1.819,1.836,3.133,2.182,4.093c0.315,0.872,0.418,1.115,0.883,1.501
						c1.549,1.283,4.467,1.484,6.551,1.021c1.385-0.306,2.709-1.036,3.826-2.108c0.879-0.84,2.273-0.816,3.118,0.065
						c0.843,0.878,0.814,2.274-0.065,3.118c-1.701,1.632-3.75,2.75-5.925,3.232
						C1160.51,1005.149,1159.431,1005.276,1158.293,1005.276z"/>
					<path style="fill:#FFFFFF;" d="M1217.327,1046.421c-2.441,0-5.151-0.588-7.174-2.261c-1.413-1.169-1.841-2.353-2.219-3.398
						c-0.295-0.816-0.6-1.66-1.516-2.885c-1.121-1.503-2.33-3.124-4.363-3.602c-2.516-0.594-4.755,0.536-5.178,0.769
						c-1.731,0.956-2.259,2.282-2.927,3.962c-0.749,1.882-1.682,4.227-4.568,5.478c-2.6,1.13-5.998,0.96-9.566-0.467
						c-3.049-1.219-4.632-3.088-5.789-4.453c-0.56-0.659-1.088-1.283-1.376-1.296c-0.061-0.021-1.72-0.032-4.679,5.697
						c-0.559,1.081-1.889,1.501-2.97,0.948c-1.082-0.558-1.507-1.888-0.948-2.971c2.924-5.663,5.716-8.242,8.816-8.079
						c2.197,0.11,3.431,1.565,4.521,2.851c0.999,1.178,2.031,2.396,4.062,3.208c2.435,0.978,4.687,1.163,6.175,0.519
						c1.165-0.506,1.544-1.352,2.225-3.064c0.751-1.888,1.781-4.474,4.896-6.195c0.946-0.521,4.33-2.132,8.319-1.199
						c3.596,0.848,5.543,3.46,6.832,5.187c1.36,1.819,1.834,3.133,2.182,4.093c0.314,0.872,0.417,1.115,0.883,1.501
						c1.549,1.283,4.465,1.484,6.551,1.021c1.385-0.306,2.709-1.036,3.826-2.108c0.878-0.842,2.273-0.816,3.118,0.065
						c0.843,0.879,0.814,2.274-0.065,3.118c-1.701,1.632-3.75,2.75-5.926,3.232
						C1219.544,1046.293,1218.464,1046.421,1217.327,1046.421z"/>
					<path style="fill:#FFFFFF;" d="M1503.553,998.121c-2.441,0-5.152-0.588-7.177-2.263c-1.41-1.167-1.839-2.351-2.218-3.395
						c-0.295-0.816-0.601-1.66-1.517-2.887c-1.122-1.503-2.331-3.122-4.362-3.6c-2.532-0.601-4.752,0.534-5.172,0.766
						c-1.738,0.958-2.265,2.282-2.932,3.962c-0.75,1.884-1.683,4.229-4.57,5.48c-2.597,1.124-5.995,0.958-9.568-0.467
						c-3.046-1.219-4.629-3.088-5.786-4.453c-0.56-0.659-1.088-1.283-1.375-1.296c-0.069-0.028-1.733-0.015-4.68,5.695
						c-0.558,1.083-1.891,1.509-2.97,0.949c-1.082-0.558-1.507-1.888-0.948-2.969c2.923-5.671,5.746-8.255,8.817-8.081
						c2.194,0.108,3.43,1.565,4.519,2.851c0.999,1.178,2.033,2.396,4.061,3.208c2.436,0.975,4.686,1.158,6.175,0.517
						c1.166-0.506,1.545-1.352,2.226-3.064c0.75-1.888,1.78-4.472,4.896-6.193c0.933-0.519,4.309-2.147,8.318-1.199
						c3.593,0.848,5.54,3.456,6.828,5.18c1.363,1.824,1.839,3.139,2.187,4.1c0.315,0.87,0.417,1.113,0.882,1.498
						c1.55,1.281,4.47,1.486,6.552,1.023c1.383-0.306,2.706-1.036,3.827-2.108c0.88-0.844,2.275-0.812,3.118,0.067
						c0.842,0.878,0.813,2.274-0.067,3.116c-1.704,1.634-3.753,2.75-5.924,3.232
						C1505.769,997.994,1504.689,998.121,1503.553,998.121z"/>
					<path style="fill:#FFFFFF;" d="M1331.819,998.121c-2.442,0-5.153-0.588-7.179-2.263c-1.41-1.167-1.839-2.351-2.217-3.398
						c-0.295-0.816-0.601-1.658-1.517-2.885c-1.124-1.505-2.333-3.122-4.362-3.6c-2.535-0.607-4.754,0.532-5.173,0.766
						c-1.736,0.958-2.265,2.282-2.933,3.962c-0.749,1.884-1.682,4.229-4.569,5.48c-2.597,1.124-5.996,0.958-9.568-0.467
						c-3.046-1.219-4.629-3.088-5.786-4.453c-0.56-0.659-1.088-1.283-1.375-1.296c-0.092-0.028-1.733-0.015-4.68,5.695
						c-0.557,1.083-1.89,1.509-2.97,0.949c-1.082-0.558-1.507-1.888-0.948-2.969c2.924-5.671,5.725-8.255,8.817-8.081
						c2.194,0.108,3.43,1.565,4.519,2.851c0.999,1.178,2.033,2.396,4.061,3.208c2.434,0.973,4.685,1.161,6.176,0.517
						c1.165-0.506,1.544-1.352,2.225-3.064c0.751-1.888,1.78-4.472,4.896-6.193c0.934-0.519,4.306-2.136,8.319-1.199
						c3.589,0.848,5.537,3.454,6.825,5.176c1.366,1.83,1.841,3.144,2.189,4.104c0.314,0.87,0.416,1.113,0.881,1.498
						c1.548,1.281,4.468,1.484,6.553,1.023c1.382-0.306,2.705-1.036,3.826-2.108c0.88-0.844,2.275-0.812,3.118,0.067
						c0.842,0.878,0.813,2.274-0.067,3.116c-1.703,1.632-3.752,2.75-5.923,3.232
						C1334.036,997.994,1332.956,998.121,1331.819,998.121z"/>
					<path style="fill:#FFFFFF;" d="M1281.729,1219.945c-2.442,0-5.154-0.588-7.177-2.263c-1.411-1.167-1.84-2.351-2.218-3.398
						c-0.295-0.816-0.601-1.658-1.517-2.885c-1.121-1.501-2.331-3.122-4.362-3.6c-2.514-0.596-4.756,0.536-5.178,0.769
						c-1.731,0.956-2.259,2.282-2.927,3.962c-0.749,1.882-1.683,4.227-4.569,5.478c-2.597,1.126-5.995,0.958-9.568-0.467
						c-3.047-1.219-4.63-3.088-5.787-4.453c-0.56-0.659-1.087-1.283-1.374-1.296c-0.072,0.009-1.726-0.028-4.681,5.697
						c-0.559,1.079-1.888,1.503-2.97,0.947c-1.082-0.558-1.507-1.888-0.948-2.971c2.923-5.665,5.71-8.231,8.816-8.079
						c2.196,0.108,3.431,1.565,4.521,2.851c0.999,1.178,2.033,2.396,4.062,3.208c2.436,0.973,4.688,1.158,6.175,0.517
						c1.165-0.506,1.544-1.352,2.225-3.064c0.751-1.886,1.781-4.472,4.896-6.193c0.946-0.521,4.33-2.132,8.319-1.199
						c3.593,0.849,5.541,3.456,6.83,5.183c1.361,1.822,1.837,3.137,2.184,4.097c0.314,0.87,0.416,1.113,0.882,1.499
						c1.548,1.281,4.467,1.486,6.552,1.023c1.385-0.306,2.708-1.036,3.826-2.108c0.877-0.842,2.275-0.812,3.118,0.065
						c0.843,0.878,0.814,2.276-0.065,3.118c-1.703,1.632-3.752,2.75-5.925,3.232
						C1283.945,1219.818,1282.866,1219.945,1281.729,1219.945z"/>
					<path style="fill:#FFFFFF;" d="M1140.406,1087.565c-2.442,0-5.152-0.588-7.176-2.261c-1.411-1.167-1.84-2.351-2.218-3.398
						c-0.295-0.814-0.601-1.658-1.517-2.885c-1.122-1.503-2.332-3.124-4.362-3.602c-2.518-0.596-4.756,0.536-5.179,0.769
						c-1.73,0.956-2.258,2.282-2.926,3.962c-0.749,1.884-1.682,4.229-4.569,5.48c-2.596,1.126-5.995,0.958-9.567-0.469
						c-3.047-1.219-4.63-3.088-5.788-4.451c-0.56-0.661-1.088-1.285-1.376-1.298c-0.081-0.019-1.721-0.032-4.678,5.697
						c-0.56,1.081-1.891,1.505-2.97,0.947c-1.082-0.558-1.507-1.888-0.948-2.971c2.922-5.663,5.702-8.264,8.815-8.079
						c2.197,0.11,3.432,1.565,4.521,2.851c1,1.178,2.032,2.396,4.062,3.208c2.436,0.975,4.689,1.163,6.176,0.519
						c1.165-0.506,1.544-1.352,2.225-3.064c0.751-1.888,1.78-4.474,4.895-6.193c0.945-0.523,4.334-2.149,8.32-1.201
						c3.593,0.848,5.54,3.458,6.829,5.185c1.363,1.824,1.838,3.137,2.185,4.097c0.314,0.87,0.416,1.113,0.881,1.499
						c1.549,1.279,4.467,1.484,6.553,1.021c1.385-0.306,2.708-1.036,3.825-2.108c0.879-0.84,2.273-0.816,3.118,0.065
						c0.843,0.879,0.814,2.274-0.064,3.118c-1.701,1.632-3.75,2.75-5.924,3.232
						C1142.622,1087.438,1141.543,1087.565,1140.406,1087.565z"/>
					<path style="fill:#FFFFFF;" d="M1446.308,1144.811c-2.442,0-5.153-0.588-7.177-2.263c-1.411-1.167-1.84-2.351-2.218-3.398
						c-0.295-0.816-0.601-1.658-1.517-2.885c-1.121-1.501-2.331-3.122-4.362-3.6c-2.515-0.59-4.755,0.534-5.178,0.769
						c-1.731,0.956-2.259,2.282-2.927,3.962c-0.749,1.882-1.682,4.227-4.569,5.478c-2.598,1.126-5.996,0.96-9.568-0.467
						c-3.047-1.219-4.63-3.088-5.787-4.453c-0.56-0.659-1.087-1.283-1.374-1.296c-0.083,0.006-1.727-0.026-4.681,5.697
						c-0.558,1.081-1.887,1.505-2.97,0.947c-1.082-0.558-1.507-1.888-0.948-2.971c2.923-5.665,5.685-8.223,8.816-8.079
						c2.196,0.108,3.431,1.565,4.521,2.851c0.999,1.178,2.033,2.397,4.062,3.208c2.437,0.975,4.688,1.161,6.175,0.517
						c1.165-0.506,1.544-1.352,2.225-3.064c0.751-1.886,1.781-4.472,4.896-6.192c0.946-0.521,4.33-2.13,8.319-1.199
						c3.592,0.848,5.541,3.456,6.83,5.182c1.361,1.822,1.837,3.137,2.184,4.097c0.314,0.87,0.416,1.113,0.882,1.499
						c1.549,1.281,4.469,1.486,6.552,1.023c1.385-0.306,2.708-1.036,3.826-2.108c0.879-0.842,2.274-0.814,3.118,0.065
						c0.843,0.879,0.814,2.276-0.065,3.118c-1.703,1.632-3.752,2.75-5.926,3.232
						C1448.524,1144.684,1447.445,1144.811,1446.308,1144.811z"/>
					<path style="fill:#FFFFFF;" d="M1414.11,924.774c-2.444,0-5.157-0.586-7.18-2.261c-1.411-1.167-1.84-2.351-2.218-3.398
						c-0.295-0.816-0.601-1.658-1.517-2.885c-1.122-1.503-2.331-3.122-4.362-3.6c-2.529-0.596-4.752,0.536-5.172,0.767
						c-1.738,0.958-2.265,2.284-2.934,3.962c-0.749,1.884-1.683,4.229-4.569,5.48c-2.598,1.126-5.995,0.958-9.568-0.467
						c-3.047-1.219-4.63-3.088-5.787-4.453c-0.56-0.659-1.087-1.283-1.374-1.296c-0.088-0.032-1.733-0.017-4.681,5.697
						c-0.559,1.081-1.889,1.501-2.97,0.947c-1.082-0.558-1.507-1.888-0.948-2.971c2.925-5.667,5.771-8.195,8.818-8.079
						c2.194,0.108,3.429,1.565,4.518,2.851c0.999,1.178,2.033,2.396,4.062,3.208c2.435,0.975,4.689,1.161,6.175,0.517
						c1.165-0.506,1.544-1.352,2.225-3.064c0.752-1.888,1.781-4.472,4.897-6.193c0.937-0.519,4.312-2.142,8.319-1.199
						c3.591,0.848,5.539,3.456,6.827,5.181c1.363,1.824,1.839,3.139,2.187,4.1c0.314,0.87,0.416,1.113,0.882,1.499
						c1.547,1.281,4.466,1.486,6.553,1.023c1.382-0.306,2.705-1.036,3.826-2.108c0.88-0.844,2.275-0.812,3.118,0.067
						c0.842,0.879,0.813,2.274-0.067,3.116c-1.704,1.634-3.753,2.75-5.924,3.232C1416.324,924.647,1415.246,924.774,1414.11,924.774
						z"/>
					<path style="fill:#FFFFFF;" d="M1398.008,1211c-2.442,0-5.153-0.588-7.177-2.263c-1.411-1.167-1.84-2.351-2.218-3.398
						c-0.295-0.816-0.601-1.658-1.517-2.885c-1.122-1.503-2.331-3.122-4.362-3.6c-2.53-0.592-4.752,0.534-5.172,0.766
						c-1.738,0.958-2.265,2.285-2.934,3.962c-0.749,1.884-1.683,4.229-4.569,5.48c-2.597,1.126-5.995,0.958-9.568-0.467
						c-3.047-1.219-4.63-3.088-5.787-4.453c-0.56-0.659-1.087-1.283-1.374-1.296c-0.081-0.015-1.733-0.017-4.681,5.697
						c-0.56,1.081-1.891,1.501-2.97,0.947c-1.082-0.558-1.507-1.888-0.948-2.971c2.925-5.667,5.749-8.171,8.818-8.079
						c2.194,0.108,3.429,1.565,4.518,2.851c0.999,1.178,2.033,2.396,4.062,3.208c2.435,0.975,4.689,1.158,6.175,0.517
						c1.165-0.506,1.544-1.352,2.225-3.064c0.751-1.888,1.781-4.472,4.897-6.192c0.936-0.519,4.311-2.142,8.319-1.199
						c3.591,0.848,5.539,3.456,6.826,5.18c1.363,1.824,1.839,3.139,2.187,4.1c0.314,0.87,0.416,1.113,0.882,1.499
						c1.549,1.281,4.468,1.486,6.552,1.023c1.383-0.306,2.707-1.036,3.827-2.108c0.881-0.844,2.274-0.812,3.118,0.067
						c0.842,0.879,0.813,2.274-0.067,3.116c-1.704,1.634-3.753,2.75-5.924,3.232C1400.223,1210.873,1399.145,1211,1398.008,1211z"/>
					<path style="fill:#FFFFFF;" d="M1330.032,1266.455c-2.445,0-5.158-0.588-7.18-2.261c-1.411-1.167-1.84-2.351-2.218-3.398
						c-0.295-0.816-0.601-1.658-1.517-2.885c-1.123-1.505-2.332-3.124-4.361-3.6c-2.532-0.601-4.753,0.534-5.173,0.766
						c-1.738,0.958-2.265,2.285-2.934,3.962c-0.749,1.884-1.683,4.229-4.569,5.48c-2.587,1.12-5.979,0.958-9.551-0.461
						c-3.063-1.227-4.646-3.096-5.803-4.459c-0.56-0.661-1.088-1.285-1.376-1.298c-0.061-0.004-1.722-0.032-4.679,5.697
						c-0.557,1.085-1.889,1.511-2.97,0.95c-1.082-0.558-1.507-1.888-0.948-2.969c2.923-5.665,5.679-8.268,8.816-8.083
						c2.197,0.11,3.432,1.568,4.52,2.851c0.999,1.18,2.033,2.399,4.062,3.21c2.445,0.973,4.694,1.156,6.175,0.517
						c1.165-0.506,1.544-1.352,2.225-3.064c0.752-1.888,1.781-4.472,4.897-6.192c0.937-0.519,4.312-2.142,8.319-1.199
						c3.589,0.846,5.537,3.454,6.827,5.178c1.363,1.826,1.839,3.141,2.187,4.102c0.314,0.87,0.416,1.113,0.882,1.499
						c1.548,1.281,4.468,1.488,6.553,1.023c1.382-0.308,2.708-1.038,3.827-2.11c0.877-0.842,2.275-0.81,3.117,0.069
						c0.843,0.878,0.812,2.276-0.068,3.118c-1.701,1.628-3.749,2.745-5.921,3.23
						C1332.247,1266.328,1331.169,1266.455,1330.032,1266.455z"/>
				</g>
				<g>
					
						<rect x="1754.037" y="752.408" transform="matrix(0.866 0.5 -0.5 0.866 617.0544 -786.7579)" style="fill:#BC8271;" width="45.206" height="11.309"/>
					
						<rect x="1558.76" y="665.774" transform="matrix(0.9181 0.3963 -0.3963 0.9181 395.5912 -571.7412)" style="fill:#BC8271;" width="45.206" height="11.309"/>
					
						<rect x="1406.99" y="610.488" transform="matrix(0.9714 0.2376 -0.2376 0.9714 187.3023 -321.9841)" style="fill:#BC8271;" width="45.206" height="11.31"/>
					
						<rect x="1084.988" y="664.155" transform="matrix(0.884 -0.4674 0.4674 0.884 -184.6407 595.3759)" style="fill:#BC8271;" width="45.206" height="11.31"/>
					
						<rect x="927.565" y="664.155" transform="matrix(0.9148 0.4038 -0.4038 0.9148 351.4037 -326.6568)" style="fill:#BC8271;" width="45.206" height="11.309"/>
					
						<rect x="1227.117" y="605.198" transform="matrix(0.9864 -0.1644 0.1644 0.9864 -83.4202 213.7654)" style="fill:#BC8271;" width="45.206" height="11.31"/>
					
						<rect x="1565.606" y="778.645" transform="matrix(0.866 0.5 -0.5 0.866 604.9298 -689.0286)" style="fill:#BC8271;" width="45.206" height="11.31"/>
					
						<rect x="1721.837" y="890.749" transform="matrix(0.866 0.5 -0.5 0.866 681.9111 -752.1236)" style="fill:#BC8271;" width="45.206" height="11.309"/>
					
						<rect x="1362.864" y="719.608" transform="matrix(0.9889 0.1488 -0.1488 0.9889 123.3019 -198.0271)" style="fill:#BC8271;" width="45.206" height="11.31"/>
					
						<rect x="1185.167" y="735.112" transform="matrix(0.9805 -0.1965 0.1965 0.9805 -122.0223 251.7923)" style="fill:#BC8271;" width="45.206" height="11.31"/>
					
						<rect x="1008.972" y="796.96" transform="matrix(0.9983 -0.0581 0.0581 0.9983 -44.9142 61.3265)" style="fill:#BC8271;" width="45.206" height="11.31"/>
				</g>
				<g>
					
						<rect x="1191.726" y="1425.031" transform="matrix(0.955 -0.2966 0.2966 0.955 -369.7045 424.5574)" style="fill:#BC8271;" width="45.206" height="11.31"/>
					
						<rect x="1365.559" y="1403.993" transform="matrix(0.9911 -0.1331 0.1331 0.9911 -175.3288 197.3783)" style="fill:#BC8271;" width="45.206" height="11.309"/>
					
						<rect x="1506.286" y="1341.978" transform="matrix(0.866 -0.5 0.5 0.866 -468.9842 944.9935)" style="fill:#BC8271;" width="45.206" height="11.31"/>
					
						<rect x="1635.682" y="1331.84" transform="matrix(0.4631 -0.8863 0.8863 0.4631 -295.1024 2187.8345)" style="fill:#BC8271;" width="45.206" height="11.309"/>
					
						<rect x="1599.904" y="1245.973" transform="matrix(0.5308 -0.8475 0.8475 0.5308 -299.4514 1962.3845)" style="fill:#BC8271;" width="45.206" height="11.31"/>
					
						<rect x="1702.468" y="1176.802" transform="matrix(0.4347 -0.9006 0.9006 0.4347 -89.751 2221.9248)" style="fill:#BC8271;" width="45.206" height="11.31"/>
					
						<rect x="1675.635" y="1064.102" transform="matrix(0.4347 -0.9006 0.9006 0.4347 -3.4259 2134.0559)" style="fill:#BC8271;" width="45.206" height="11.31"/>
					
						<rect x="1329.781" y="1477.04" transform="matrix(0.9754 -0.2203 0.2203 0.9754 -293.3544 334.2737)" style="fill:#BC8271;" width="45.206" height="11.31"/>
					
						<rect x="1511.056" y="1443.349" transform="matrix(0.9524 -0.3048 0.3048 0.9524 -368.6549 536.3574)" style="fill:#BC8271;" width="45.206" height="11.309"/>
				</g>
				<g>
					<path style="fill:#84524D;" d="M1037.259,1310.573c-0.01,0-0.019,0-0.029,0c-1.218-0.015-2.192-1.014-2.177-2.233
						l1.503-118.712c0.015-1.219,0.955-2.134,2.233-2.177c1.218,0.015,2.192,1.014,2.177,2.233l-1.503,118.711
						C1039.448,1309.604,1038.463,1310.573,1037.259,1310.573z"/>
					<path style="fill:#8B865C;" d="M1073.322,1180.64c0,31.536-6.011,58.604-36.816,57.102s-36.816-25.565-36.816-57.102
						s16.483-57.102,36.816-57.102C1056.839,1123.538,1073.322,1149.103,1073.322,1180.64z"/>
				</g>
				<g>
					<path style="fill:#84524D;" d="M1044.345,1489.497c-0.01,0-0.019,0-0.029,0c-1.218-0.015-2.192-1.014-2.177-2.233
						l1.502-118.712c0.015-1.219,1.015-2.299,2.233-2.177c1.218,0.015,2.192,1.014,2.177,2.233l-1.502,118.711
						C1046.534,1488.528,1045.549,1489.497,1044.345,1489.497z"/>
					<path style="fill:#8B865C;" d="M1080.408,1359.565c0,31.536-6.011,58.604-36.816,57.102
						c-30.805-1.503-36.816-25.565-36.816-57.102c0-31.536,16.483-57.102,36.816-57.102
						C1063.925,1302.463,1080.408,1328.029,1080.408,1359.565z"/>
				</g>
				<g>
					<path style="fill:#84524D;" d="M1040.582,958.846c-0.01,0-0.019,0-0.029,0c-1.218-0.015-2.192-1.014-2.177-2.233l1.503-118.711
						c0.014-1.216,1.002-2.263,2.233-2.177c1.218,0.015,2.192,1.014,2.177,2.233l-1.503,118.711
						C1042.77,957.877,1041.785,958.846,1040.582,958.846z"/>
					<path style="fill:#8B865C;" d="M1076.645,828.914c0,31.536-6.011,58.604-36.816,57.102
						c-30.805-1.503-36.815-25.565-36.815-57.102c0-31.536,16.483-57.102,36.815-57.102
						C1060.162,771.813,1076.645,797.378,1076.645,828.914z"/>
				</g>
				<g>
					<path style="fill:#84524D;" d="M1497.072,871.519c-0.01,0-0.019,0-0.029,0c-1.218-0.015-2.192-1.014-2.177-2.233l1.503-118.711
						c0.014-1.219,0.982-2.293,2.233-2.177c1.218,0.015,2.192,1.014,2.177,2.233l-1.503,118.711
						C1499.26,870.55,1498.275,871.519,1497.072,871.519z"/>
					<path style="fill:#8B865C;" d="M1533.135,741.586c0,31.536-6.011,58.604-36.816,57.102s-36.816-25.565-36.816-57.102
						c0-31.536,16.483-57.102,36.816-57.102C1516.652,684.484,1533.135,710.049,1533.135,741.586z"/>
				</g>
				<g>
					<path style="fill:#84524D;" d="M1290.658,835.794c-0.01,0-0.019,0-0.029,0c-1.218-0.015-2.192-1.014-2.177-2.233l1.503-118.711
						c0.014-1.219,1-2.16,2.233-2.177c1.218,0.015,2.192,1.014,2.177,2.233l-1.503,118.712
						C1292.847,834.825,1291.862,835.794,1290.658,835.794z"/>
					<path style="fill:#8B865C;" d="M1326.722,705.86c0,31.536-6.011,58.604-36.816,57.102
						c-30.805-1.503-36.815-25.565-36.815-57.102c0-31.536,16.483-57.102,36.815-57.102
						C1310.239,648.759,1326.722,674.324,1326.722,705.86z"/>
				</g>
				<g>
					<path style="fill:#84524D;" d="M917.47,1370.116c-0.01,0-0.019,0-0.029,0c-1.218-0.015-2.192-1.014-2.177-2.233l1.503-118.711
						c0.015-1.208,1-2.177,2.204-2.177c0.01,0,0.019,0,0.029,0c1.218,0.015,2.192,1.014,2.177,2.233l-1.503,118.711
						C919.659,1369.147,918.674,1370.116,917.47,1370.116z"/>
					<path style="fill:#8B865C;" d="M953.533,1240.183c0,31.536-6.011,58.604-36.815,57.102
						c-30.805-1.503-36.816-25.565-36.816-57.102s16.483-57.102,36.816-57.102C937.05,1183.081,953.533,1208.647,953.533,1240.183z"
						/>
				</g>
			</g>
			<path style="fill:#8B865C;" d="M978.039,603.81c-0.755,0-1.49-0.388-1.901-1.085l-75.496-128.013l-65.029-6.503
				c-1.211-0.121-2.095-1.202-1.974-2.414c0.122-1.212,1.192-2.061,2.414-1.974l67.253,6.726l76.63,129.938
				c0.619,1.049,0.27,2.401-0.779,3.019C978.806,603.711,978.419,603.81,978.039,603.81z"/>
			<path style="fill:#8B865C;" d="M1768.424,1053.569c-0.299,0-0.603-0.06-0.895-0.189c-1.112-0.495-1.614-1.798-1.118-2.911
				l79.912-179.803l54.247-3.391c1.233-0.08,2.262,0.848,2.338,2.063c0.077,1.216-0.847,2.263-2.063,2.338l-51.58,3.223
				l-78.827,177.361C1770.074,1053.082,1769.269,1053.569,1768.424,1053.569z"/>
			<path style="fill:#8B865C;" d="M1571.236,1741.679l-73.997-0.241c-1.218-0.004-2.202-0.995-2.197-2.211
				c0.004-1.217,0.99-2.198,2.205-2.198c0.002,0,0.004,0,0.008,0l71.512,0.233l102.27-167.599c0.635-1.042,1.994-1.369,3.031-0.734
				c1.039,0.633,1.367,1.992,0.733,3.029L1571.236,1741.679z"/>
		</g>
		<g>
			<g>
				<g>
					<g>
						<path style="fill:#84524D;" d="M820.9,1144.192c0,0,115.239-87.889,155.235-114.499
							c42.004-27.945,108.089-63.089,112.886-53.781c2.732,5.301-5.289,11.958-27.913,28.324c1.971,0.316,7.705,2.751,9.433,8.085
							c2.557,7.892-3.253,11.709-3.603,12.286c0.677,0.053,8.358,1.071,10.964,6.064c2.936,5.624,1.173,10.713-1.972,14.574
							c1.676,0.184,8.653,2.14,10.914,7.06c2.94,6.398-1.511,12.795-6.397,15.943c-8.965,5.774-33.853,20.944-45.99,30.647
							c-23.885,19.094-99.603,98.286-141.418,116.758C889.932,1176.21,820.9,1144.192,820.9,1144.192z"/>
						<path style="fill:#363E44;" d="M1007.686,1076.786c-0.462,0-0.929-0.144-1.326-0.446c-0.972-0.734-1.165-2.117-0.431-3.088
							c6.373-8.438,7.902-16.978,9.129-23.837c1.316-7.349,2.451-13.696,9.45-15.029c3.783-0.721,8.061-3.559,12.371-8.21
							c1.03-1.111,0.543-2.323,0.368-2.668c-0.179-0.353-0.884-1.488-2.422-1.318l-32.592,3.647
							c-1.216,0.123-2.301-0.739-2.436-1.947c-0.136-1.21,0.735-2.302,1.945-2.437l32.593-3.647
							c2.859-0.317,5.549,1.137,6.849,3.714c1.289,2.556,0.869,5.559-1.071,7.652c-5.024,5.422-9.997,8.634-14.78,9.545
							c-3.847,0.732-4.64,4.242-5.934,11.474c-1.241,6.937-2.942,16.439-9.952,25.717
							C1009.014,1076.485,1008.354,1076.786,1007.686,1076.786z"/>
						<path style="fill:#363E44;" d="M1061.647,1075.047c-0.722,0-1.43-0.355-1.853-1.005c-3.897-6.014-3.866-13.556-0.467-19.447
							c-5.41,2.125-11.618,0.304-15.006-4.502c-1.988-2.818-2.737-6.24-2.106-9.631c0.63-3.393,2.558-6.319,5.428-8.238l1.569-1.047
							c-2.72-0.715-5.155-2.493-6.597-5.122c-2.594-4.726-1.228-10.634,3.177-13.743l9.815-6.922
							c0.992-0.698,2.371-0.463,3.073,0.532c0.702,0.995,0.464,2.371-0.532,3.073l-9.814,6.922c-2.57,1.813-3.366,5.26-1.854,8.016
							c1.607,2.93,5.323,4.05,8.278,2.5l7.337-3.841c1.041-0.545,2.322-0.179,2.919,0.827c0.599,1.01,0.304,2.308-0.672,2.961
							l-14.248,9.515c-1.872,1.251-3.131,3.159-3.542,5.374c-0.411,2.213,0.076,4.446,1.374,6.285
							c2.306,3.268,6.615,4.42,10.245,2.745l11.681-5.402c1.022-0.482,2.238-0.099,2.818,0.868c0.578,0.969,0.334,2.218-0.567,2.894
							l-5.232,3.936c-5.924,4.459-7.407,12.828-3.373,19.051c0.662,1.023,0.37,2.388-0.651,3.049
							C1062.474,1074.932,1062.058,1075.047,1061.647,1075.047z"/>
					</g>
					<path style="fill:#EFBC73;" d="M948.128,1038.765l55.871,97.917l-90.979,73.528c-22.991,18.581-55.15,20.792-80.467,5.531
						l-141.094-52.411l23.789-149.4c47.435,12.649,100.583,45.218,155.254,83.103L948.128,1038.765z"/>
					<g>
						<path style="fill:#84524D;" d="M1075.93,1045.246c3.145-3.861,4.908-8.95,1.971-14.574
							c-2.606-4.993-10.286-6.011-10.964-6.064c0.351-0.578,6.16-4.394,3.603-12.287c-1.729-5.333-7.462-7.768-9.433-8.084
							c22.624-16.366,30.645-23.023,27.913-28.325c-4.797-9.308-70.882,25.836-112.886,53.781c-2.908,1.935-6.223,4.201-9.852,6.726
							c17.038,26.01,33.609,52.328,49.556,79.02c7.679-7.126,14.085-12.92,18.617-16.543c12.138-9.704,37.026-24.873,45.991-30.647
							c4.886-3.148,9.338-9.545,6.397-15.943C1084.583,1047.386,1077.606,1045.43,1075.93,1045.246z"/>
						<path style="fill:#363E44;" d="M1007.686,1076.786c-0.462,0-0.929-0.144-1.326-0.446c-0.972-0.734-1.165-2.117-0.431-3.088
							c6.373-8.438,7.902-16.978,9.129-23.837c1.316-7.349,2.451-13.696,9.45-15.029c3.783-0.721,8.061-3.559,12.371-8.21
							c1.03-1.111,0.543-2.323,0.368-2.668c-0.179-0.353-0.884-1.488-2.422-1.318l-32.592,3.647
							c-1.216,0.123-2.301-0.739-2.436-1.947c-0.136-1.21,0.735-2.302,1.945-2.437l32.593-3.647
							c2.859-0.317,5.549,1.137,6.849,3.714c1.289,2.556,0.869,5.559-1.071,7.652c-5.024,5.422-9.997,8.634-14.78,9.545
							c-3.847,0.732-4.64,4.242-5.934,11.474c-1.241,6.937-2.942,16.439-9.952,25.717
							C1009.014,1076.485,1008.354,1076.786,1007.686,1076.786z"/>
						<path style="fill:#363E44;" d="M1061.647,1075.047c-0.722,0-1.43-0.355-1.853-1.005c-3.897-6.014-3.866-13.556-0.467-19.447
							c-5.41,2.125-11.618,0.304-15.006-4.502c-1.988-2.818-2.737-6.24-2.106-9.631c0.63-3.393,2.558-6.319,5.428-8.238l1.569-1.047
							c-2.72-0.715-5.155-2.493-6.597-5.122c-2.594-4.726-1.228-10.634,3.177-13.743l9.815-6.922
							c0.992-0.698,2.371-0.463,3.073,0.532c0.702,0.995,0.464,2.371-0.532,3.073l-9.814,6.922c-2.57,1.813-3.366,5.26-1.854,8.016
							c1.607,2.93,5.323,4.05,8.278,2.5l7.337-3.841c1.041-0.545,2.322-0.179,2.919,0.827c0.599,1.01,0.304,2.308-0.672,2.961
							l-14.248,9.515c-1.872,1.251-3.131,3.159-3.542,5.374c-0.411,2.213,0.076,4.446,1.374,6.285
							c2.306,3.268,6.615,4.42,10.245,2.745l11.681-5.402c1.022-0.482,2.238-0.099,2.818,0.868c0.578,0.969,0.334,2.218-0.567,2.894
							l-5.232,3.936c-5.924,4.459-7.407,12.828-3.373,19.051c0.662,1.023,0.37,2.388-0.651,3.049
							C1062.474,1074.932,1062.058,1075.047,1061.647,1075.047z"/>
					</g>
				</g>
				<path style="fill:#EFBC73;" d="M496.948,1023.845c-9.401,2.947-48.965,391.698-48.965,391.698l24.213,63.047h68.201h245.351
					l35.453-63.047l-32.199-249.873c0,0-63.786-131.39-73.754-151.74C715.248,1013.93,572.574,1000.134,496.948,1023.845z"/>
				<g>
					<g>
						<g>
							<path style="fill:#FFFFFF;" d="M577.372,1269.357c-0.245,0-0.495-0.041-0.74-0.127c-1.148-0.409-1.746-1.671-1.337-2.818
								l53.927-151.409c0.314-0.883,1.115-1.393,2.096-1.464l118.224,1.033c1.218,0.011,2.196,1.005,2.185,2.224
								c-0.011,1.21-0.996,2.185-2.205,2.185c-0.006,0-0.013,0-0.019,0l-116.654-1.021l-53.4,149.932
								C579.128,1268.795,578.279,1269.357,577.372,1269.357z"/>
						</g>
						<g>
							<polygon style="fill:#D87355;" points="704.48,1277.49 586.256,1277.49 640.183,1126.081 758.407,1126.081 							"/>
						</g>
					</g>
					<path style="fill:#EFBC73;" d="M353.237,1286.541c0,0,68.882,38.212,105.346-19.705l52.406-111.036l-12.769-132.235
						l-1.272,0.28c-33.246,7.325-62.709,26.453-82.932,53.839c0,0-27.579,42.056-36.222,56.417
						C357.888,1167.173,308.665,1254.888,353.237,1286.541z"/>
					<g>
						<path style="fill:#84524D;" d="M411.269,1194.729c40.447,2.705,136.013,4.36,145.336,4.893
							c17.427,0.997,110.811,8.772,111.15,22.368c0.162,6.497-17.896,5.812-23.994,5.403c4.762,2.759,24.198,11.371,22.484,18.452
							c-2.013,8.319-26.744,1.602-27.195,1.74c5.12,2.311,25.888,10.69,24.81,16.049c-1.403,6.972-23.061,4.971-29.518,4.072
							c0.555,0.976,21.424,6.057,20.105,14.44c-0.969,6.155-20.836,4.289-29.458,3.505c-15.484-0.873-196.116-1.286-229.676-5.649
							C382.177,1278.295,393.5,1207.395,411.269,1194.729z"/>
						<path style="fill:#363E44;" d="M433.989,1197.173c-0.033,0-0.067,0-0.1-0.002c-17.19-0.762-36.022-1.604-41.91-1.933
							c-1.215-0.067-2.147-1.107-2.079-2.323c0.068-1.216,1.11-2.153,2.324-2.078c5.865,0.325,24.683,1.167,41.86,1.929
							c1.217,0.054,2.159,1.083,2.105,2.299C436.137,1196.249,435.162,1197.173,433.989,1197.173z"/>
						<g>
							<path style="fill:#363E44;" d="M644.012,1228.964c-0.291,0-0.586-0.058-0.87-0.179c-3.272-1.406-6.661-2.597-10.07-3.536
								c-6.143-1.688-12.513-2.618-18.929-2.758c-1.218-0.028-2.182-1.036-2.156-2.254c0.027-1.214,1.047-2.172,2.253-2.155
								c6.779,0.151,13.509,1.13,20.003,2.917c3.604,0.993,7.184,2.248,10.642,3.734c1.119,0.48,1.635,1.779,1.155,2.896
								C645.68,1228.465,644.867,1228.964,644.012,1228.964z"/>
							<path style="fill:#363E44;" d="M639.425,1249.363c-0.213,0-0.431-0.03-0.645-0.097c-0.715-0.218-1.445-0.431-2.19-0.637
								c-6.139-1.688-12.509-2.616-18.931-2.76c-1.218-0.028-2.182-1.038-2.154-2.254c0.027-1.219,0.994-2.248,2.253-2.155
								c6.784,0.153,13.514,1.135,20.003,2.92c0.787,0.215,1.556,0.441,2.307,0.672c1.165,0.355,1.82,1.587,1.465,2.752
								C641.242,1248.751,640.369,1249.363,639.425,1249.363z"/>
							<path style="fill:#363E44;" d="M633.935,1269.699c-0.132,0-0.267-0.011-0.403-0.036c-4.087-0.756-8.287-1.186-12.485-1.281
								c-1.218-0.028-2.182-1.038-2.154-2.254c0.027-1.219,0.99-2.239,2.253-2.155c4.433,0.101,8.87,0.556,13.187,1.354
								c1.198,0.222,1.99,1.372,1.768,2.569C635.906,1268.957,634.979,1269.699,633.935,1269.699z"/>
						</g>
					</g>
				</g>
			</g>
			<g>
				<polygon style="fill:#84524D;" points="572.851,1040.984 626.581,1032.289 647.733,958.754 600.418,945.144 				"/>
				<path style="fill:#84524D;" d="M550.584,1030.802c0.43,9.881,24.405,16.864,53.549,15.595
					c29.144-1.269,52.422-10.307,51.992-20.189c-0.43-9.881-24.405-16.863-53.549-15.595
					C573.432,1011.882,550.154,1020.921,550.584,1030.802z"/>
				<g>
					<path style="fill:#84524D;" d="M677.366,962.263c-4.155,13.075-42.369,14.859-42.369,14.859l-37.191-19.327
						c-11.612-15.416-8.528-37.327,6.888-48.939c15.416-11.612,37.327-8.528,48.938,6.888
						C653.633,915.744,681.599,948.946,677.366,962.263z"/>
					<path style="fill:#84524D;" d="M655.954,925.499c0,0,14.008,2.306,15.223,4.785c1.45,2.959-6.084,11.105-6.084,11.105
						S656.177,925.362,655.954,925.499z"/>
					<g>
						<path style="fill:#FFFFFF;" d="M629.863,943.279c0,0,2.78-6.034,8.413-10.276c1.199-0.903,6.162,10.391,4.615,10.705
							C636.091,945.088,629.863,943.279,629.863,943.279z"/>
						<g>
							<defs>
								<path id="SVGID_1_" d="M629.863,943.279c0,0,4.089-8.874,12.397-12.666c8.309-3.792,17.691-1.066,17.691-1.066
									s-4.089,8.874-12.398,12.666C639.246,946.005,629.863,943.279,629.863,943.279z"/>
							</defs>
							<clipPath id="SVGID_00000082367227211925754840000016900092800798140060_">
								<use xlink:href="#SVGID_1_"  style="overflow:visible;"/>
							</clipPath>
							<path style="clip-path:url(#SVGID_00000082367227211925754840000016900092800798140060_);fill:#363E44;" d="M638.33,932.577
								c0.919-6.532,6.96-11.082,13.492-10.163c6.532,0.919,11.082,6.96,10.163,13.492c-0.919,6.532-6.96,11.082-13.492,10.163
								C641.96,945.15,637.41,939.109,638.33,932.577z"/>
						</g>
					</g>
					<path style="fill:#363E44;" d="M658.893,954.617c-2.5,0-4.876-1.354-6.152-3.544c-0.613-1.051-0.256-2.401,0.796-3.014
						c1.051-0.611,2.402-0.256,3.016,0.797c0.518,0.887,1.516,1.397,2.519,1.346c1.055-0.075,1.974-0.769,2.345-1.772
						c0.422-1.141,1.692-1.725,2.832-1.305c1.142,0.422,1.726,1.69,1.304,2.834c-0.97,2.625-3.392,4.448-6.172,4.642
						C659.218,954.61,659.055,954.617,658.893,954.617z"/>
					<path style="fill:#363E44;" d="M635.358,979.807c-1.17,0-2.145-0.922-2.201-2.101c-0.056-1.217,0.884-2.248,2.099-2.306
						c0.217-0.011,21.892-1.09,33.717-7.086c1.084-0.553,2.411-0.116,2.964,0.969c0.55,1.085,0.116,2.411-0.97,2.963
						c-12.672,6.427-34.578,7.517-35.505,7.56C635.428,979.807,635.393,979.807,635.358,979.807z"/>
				</g>
				<path style="fill:#363E44;" d="M634.112,908.088c5.652-2.006,9.629-7.118,10.136-13.094c0.907-10.671,0.777-27.031-7.221-34.12
					c-1.523-1.349-2.849-1.997-4.697-2.3c-10.292-1.682-13.786,17.461-31.742,30.838c-17.302,12.89-33.454,9.563-37.644,22.014
					c-1.842,5.475-0.211,10.726,0.137,12.015c4.59,17.018,21.021,19.91,21.021,19.91s-10.908-0.966-10.244,13.521
					c0.666,14.487,44.341,2.147,44.341,2.147l3.544-6.859l-9.51-12.218c-7.232-9.292-3.247-22.937,7.85-26.875L634.112,908.088z"/>
				<path style="fill:#84524D;" d="M592.475,961.984c1.605,6.46,8.144,10.396,14.604,8.791c6.461-1.605,10.397-8.144,8.792-14.604
					c-1.605-6.461-8.144-10.396-14.604-8.792C594.806,948.985,590.87,955.523,592.475,961.984z"/>
			</g>
			<g>
				<path style="fill:#E6D0BE;" d="M450.058,2161.927h153.97c0,0-14.014-123.924-63.587-152.689h-44.433
					C496.008,2009.239,454.335,2078.977,450.058,2161.927z"/>
				<path style="fill:#84524D;" d="M478.578,1939.638c0.709,2.291,8.627,49.905,13.544,79.668
					c2.249,13.612,14.018,23.591,27.814,23.591l0,0c15.57,0,28.192-12.622,28.192-28.192v-67.284L478.578,1939.638z"/>
				<path style="fill:#E6D0BE;" d="M657.066,2004.956c0,0-11.707,76.697-7.162,156.971h234.845c0,0-23.541-109.305-152.67-156.971
					H657.066z"/>
				<path style="fill:#84524D;" d="M666.549,1941.793c-1.121,1.854-4.911,32.375-8.065,59.201
					c-2.542,21.619,14.445,40.564,36.211,40.386h0c16.18-0.132,30.303-10.996,34.581-26.6l24.871-90.716L666.549,1941.793z"/>
				<path style="fill:#363E44;" d="M506.973,1343.875c-35.712,116.919-104.433,393.777-33.654,609.071h90.595
					c0,0,58.217-390.149,65.013-458.753h13.219c0,0,5.732,254.583,14.92,453.228h101.582c0,0,89.296-306.659,9.279-603.545
					l-29.917-25.381H547.977L506.973,1343.875z"/>
			</g>
		</g>
		<g>
			<g>
				<g>
					<path style="fill:#E2A18D;" d="M1785.454,1565.406c12.412-26.098,21.947-40.215,38.584-46.041
						c22.359-7.829,43.984,6.758,46.218,8.315c1.427,0.994,22.559,13.903,23.763,38.792c0.867,17.926-5.211,35.73-16.646,48.973
						c-7.89,9.138-9.144,22.256-2.972,32.632l38.823,65.265c-1.767,17.364-17.275,30.007-34.639,28.24l-3.933-0.4
						c-17.364-1.767-52.026-15.121-50.259-32.485l-30.525-69.459c-10.921-2.043-19.311-6.122-22.236-12.056
						C1766.393,1616.552,1770.837,1596.138,1785.454,1565.406z"/>
					<path style="fill:#363E44;" d="M1793.457,1640.535c-1.045,0-1.973-0.745-2.167-1.811c-0.217-1.197,0.577-2.345,1.775-2.562
						l13.414-2.439c1.198-0.23,2.345,0.577,2.563,1.774c0.217,1.197-0.577,2.345-1.775,2.562l-13.414,2.439
						C1793.721,1640.525,1793.588,1640.535,1793.457,1640.535z"/>
					<path style="fill:#363E44;" d="M1815.516,1602.821c-0.607,0-1.211-0.25-1.647-0.739c-0.81-0.909-0.73-2.302,0.179-3.111
						c1.657-1.479,3.14-2.851,4.681-4.274c1.281-1.186,2.602-2.407,4.094-3.757c0.902-0.818,2.297-0.745,3.114,0.157
						c0.817,0.904,0.746,2.297-0.157,3.116c-1.477,1.335-2.786,2.547-4.057,3.721c-1.56,1.443-3.062,2.831-4.74,4.328
						C1816.563,1602.636,1816.038,1602.821,1815.516,1602.821z"/>
					<path style="fill:#363E44;" d="M1926.603,1581.774c4.568-13.748-2.873-28.596-16.622-33.164
						c-0.021-0.007-0.043-0.013-0.065-0.02c2.157-2.306,3.877-5.087,4.938-8.28c3.934-11.84-2.474-24.627-14.314-28.561
						c-2.474-0.822-4.986-1.168-7.452-1.132c-96.198-40.508-98.708,13.922-98.365,14.018c-5.308,21.42,16.054,31.106,17.264,31.86
						c-5.624,8.77-11.246,17.542-16.869,26.312c3.321,2.23,7.213,5.139,10.533,7.369c5.391-9.385,10.628-12.005,16.571-11.175
						c9.358,1.307,15.002,12.082,13.01,21.015c-1.818,8.154-7.344,15.517-16.327,17.498c8.895,3.109,18.294,6.104,28.187,8.899
						c5.16,1.459,10.232,2.799,15.201,4.031c3.581-0.977,26.738-7.721,38.378-30.733
						C1912.052,1600.167,1922.832,1593.124,1926.603,1581.774z"/>
				</g>
				<g>
					
						<ellipse transform="matrix(0.7071 -0.7071 0.7071 0.7071 -488.4942 1855.1611)" style="fill:#363E44;" cx="1995.13" cy="1517.245" rx="123.525" ry="123.525"/>
					<path style="fill:#363E44;" d="M1983.513,1615.675c-64.745,0-117.418-52.672-117.418-117.417s52.673-117.417,117.418-117.417
						c64.744,0,117.417,52.672,117.417,117.417S2048.257,1615.675,1983.513,1615.675z M1983.513,1385.25
						c-62.313,0-113.009,50.696-113.009,113.008s50.696,113.008,113.009,113.008c62.313,0,113.008-50.696,113.008-113.008
						S2045.826,1385.25,1983.513,1385.25z"/>
				</g>
			</g>
			<g>
				<g>
					<polygon style="fill:#E2A18D;" points="1663.168,2063.766 1824.235,1888.309 1680.703,1777.512 1556.542,1965.614 					"/>
					<g>
						<path style="fill:#E2A18D;" d="M1680.629,2002.935c0,0-194.555-137.357-219.449-154.021c-2.607-1.745-7.194-4.846-14.026-7.11
							c-25.313-8.39-40.873,8.153-71.515,11.477c-34.768,3.771-56.48-13.791-61.465-6.38c-3.467,5.155,2.858,14.085,21.343,26.119
							l-0.002,0.003c-15.095-7.528-36.012-16.845-40.148-8.491c-4.26,9.901,19.03,23.733,33.528,31.412
							c-17.549-9.294-29.661-8.987-30.806-3.754c-1.803,8.236,10.127,18.613,33.796,29.997l0,0.002
							c-18.539-3.295-23.528-1.331-23.412,3.541c0.21,8.896,19.846,17.889,38.423,23.178c20.913,5.955,39.199,3.317,50.689,1.38
							l0.009,0.003c73.233,62.373,75.093,58.33,132.716,110.464C1585.059,2110.289,1683.8,2099.751,1680.629,2002.935z"/>
						<path style="fill:#E2A18D;" d="M1404.456,1856.787c-27.205-21.384-32.487-34.862-28.961-39.065
							c5.93-7.069,36.63,1.68,80.327,27.923C1441.79,1850.033,1418.488,1852.4,1404.456,1856.787z"/>
						<g>
							<path style="fill:#363E44;" d="M1395.77,1852.527c-0.95,0-1.827-0.618-2.112-1.576c-0.348-1.167,0.317-2.394,1.484-2.741
								c3.936-1.173,7.651-2.459,11.246-3.701c7.798-2.696,15.163-5.241,22.956-5.973c1.215-0.116,2.287,0.779,2.401,1.99
								c0.114,1.214-0.777,2.289-1.99,2.403c-7.264,0.68-14.386,3.141-21.926,5.749c-3.639,1.257-7.4,2.558-11.427,3.757
								C1396.19,1852.497,1395.978,1852.527,1395.77,1852.527z"/>
							<path style="fill:#363E44;" d="M1362.073,1879.743c-2.759,0-5.516-0.161-8.244-0.482c-6.239-0.732-12.38-2.306-18.252-4.679
								c-1.129-0.454-1.675-1.74-1.219-2.868c0.455-1.13,1.743-1.68,2.87-1.219c5.508,2.224,11.266,3.699,17.115,4.386
								c4.036,0.476,8.145,0.575,12.21,0.299c1.267-0.037,2.267,0.838,2.349,2.052c0.083,1.214-0.835,2.265-2.05,2.349
								C1365.264,1879.689,1363.667,1879.743,1362.073,1879.743z"/>
							<path style="fill:#363E44;" d="M1353.221,1901.38c-2.758,0-5.516-0.161-8.244-0.482c-6.245-0.734-12.386-2.308-18.252-4.679
								c-1.129-0.454-1.675-1.74-1.219-2.868c0.455-1.128,1.742-1.679,2.87-1.219c5.502,2.222,11.261,3.697,17.115,4.386
								c4.037,0.476,8.144,0.577,12.21,0.299c1.254-0.035,2.267,0.837,2.349,2.052c0.083,1.214-0.835,2.265-2.05,2.349
								C1356.412,1901.326,1354.817,1901.38,1353.221,1901.38z"/>
							<path style="fill:#363E44;" d="M1358.063,1929.401c-2.757,0-5.51-0.159-8.229-0.48c-6.25-0.736-12.39-2.31-18.252-4.681
								c-1.128-0.457-1.674-1.742-1.218-2.87c0.458-1.128,1.74-1.679,2.871-1.217c5.497,2.222,11.255,3.699,17.113,4.388
								c4.031,0.472,8.138,0.568,12.212,0.297c1.272-0.054,2.268,0.837,2.349,2.052c0.083,1.214-0.835,2.265-2.05,2.349
								C1361.262,1929.347,1359.661,1929.401,1358.063,1929.401z"/>
						</g>
					</g>
				</g>
				<g>
					<path style="fill:#D87355;" d="M2071.424,1748.294c-17.481-26.2-44.882-44.196-75.878-49.788
						c-79.557-14.354-147.403-12.952-200.354-6.015c-74.101,9.708-136.522,60.114-162.191,130.302l127.95,134.455l19.239,203.361
						h383.682v-242.068C2147.114,1866.418,2101.224,1792.958,2071.424,1748.294z"/>
					<path style="fill:#363E44;" d="M1780.192,1950.943c-0.6,0-1.197-0.243-1.632-0.721c-0.819-0.902-0.754-2.295,0.147-3.116
						l39.717-36.108c0.903-0.818,2.297-0.751,3.115,0.149c0.819,0.902,0.754,2.295-0.147,3.116l-39.717,36.108
						C1781.251,1950.754,1780.72,1950.943,1780.192,1950.943z"/>
				</g>
			</g>
		</g>
	</g>
</g>
</svg>
